<svg aria-hidden="true" style="position:absolute;width:0;height:0" xmlns="http://www.w3.org/2000/svg" overflow="hidden"><defs><symbol id="box" viewBox="0 0 32 32"><path d="M31.467 0H.534a.533.533 0 00-.533.533v28.8c0 .294.238.533.533.533h2.133v1.6c0 .294.238.533.533.533h5.333a.533.533 0 00.533-.533v-1.6h12.8v1.6c0 .294.238.533.533.533h5.333a.533.533 0 00.533-.533v-1.6h3.2a.533.533 0 00.533-.533V.533A.533.533 0 0031.465 0zM8 30.933H3.733v-1.067H8v1.067zm19.2 0h-4.267v-1.067H27.2v1.067zm3.733-2.133H1.066V1.067h29.867V28.8z"/><path d="M27.733 13.867v-2.133H28.8a.533.533 0 00.533-.533V5.868a.533.533 0 00-.533-.533h-1.067V2.668a.533.533 0 00-.533-.533H2.667a.533.533 0 00-.533.533v24.533c0 .294.238.533.533.533H27.2a.533.533 0 00.533-.533v-2.667H28.8a.533.533 0 00.533-.533v-5.333a.533.533 0 00-.533-.533h-1.067v-4.267zm-1.066 12.8H3.2V3.2h23.467v2.133h-2.133a.533.533 0 00-.533.533v5.333c0 .294.238.533.533.533h2.133v1.6h-1.6a.533.533 0 00-.533.533v2.133c0 .294.238.533.533.533h1.6v1.6h-2.133a.533.533 0 00-.533.533v5.333c0 .294.238.533.533.533h2.133v2.133zm0-12.267v1.067H25.6V14.4h1.067zm1.6 4.8v1.6h-1.6v1.067h1.6v1.6h-3.2V19.2h3.2zM27.2 10.667h-2.133V6.4h3.2V8h-1.6v1.067h1.6v1.6H27.2z"/><path d="M16.533 6.933h-11.2a.533.533 0 00-.533.533v14.933c0 .294.238.533.533.533h11.2a.533.533 0 00.533-.533V7.466a.533.533 0 00-.533-.533zM16 21.867H5.867v-9.6H16v9.6zM16 11.2H5.867V8H16v3.2z"/><path d="M7.467 13.867h1.6v1.067h-1.6zm2.666 0h1.6v1.067h-1.6zm2.667 0h1.6v1.067h-1.6zm-5.333 2.666h1.6V17.6h-1.6zm2.666 0h1.6V17.6h-1.6zm2.667 0h1.6V17.6h-1.6zM7.467 19.2h1.6v1.067h-1.6zm2.666 0h1.6v1.067h-1.6zm2.667 0h1.6v1.067h-1.6z"/></symbol><symbol id="cart" viewBox="0 0 32 32"><path d="M29.658 2.909H5.818v.209L5.52 2.095A2.923 2.923 0 002.727 0h-2a.726.726 0 100 1.454h2c.643 0 1.217.43 1.396 1.048L8.65 18.023l-2.32 2.899a2.344 2.344 0 001.829 3.805h20.203a.727.727 0 000-1.454H8.159a.89.89 0 01-.693-1.443l2.337-2.921h14.265a2.924 2.924 0 002.633-1.67l5.075-10.785c.14-.292.222-.635.222-.996v-.206a2.344 2.344 0 00-2.342-2.342zm.887 2.548c0 .13-.029.261-.085.378l-5.075 10.784a1.462 1.462 0 01-1.317.835H9.998L6.18 4.363h23.476a.89.89 0 01.888.888v.206zM8.727 26.182c-1.604 0-2.909 1.305-2.909 2.909S7.123 32 8.727 32s2.909-1.305 2.909-2.909-1.305-2.909-2.909-2.909zm0 4.363c-.802 0-1.455-.653-1.455-1.455s.653-1.455 1.455-1.455 1.455.653 1.455 1.455-.653 1.455-1.455 1.455zm17.455-4.363c-1.604 0-2.909 1.305-2.909 2.909S24.578 32 26.182 32s2.909-1.305 2.909-2.909-1.305-2.909-2.909-2.909zm0 4.363c-.802 0-1.455-.653-1.455-1.455s.653-1.455 1.455-1.455 1.455.653 1.455 1.455-.653 1.455-1.455 1.455z"/></symbol><symbol id="compass" viewBox="0 0 32 32"><path d="M16.054 29.406h.02c3.135 0 5.973-1.272 8.026-3.328 4.437-4.437 4.437-11.656 0-16.093s-11.656-4.437-16.094 0c-4.437 4.437-4.437 11.656 0 16.093a11.31 11.31 0 008.027 3.328h.021-.001zM7.507 17.651H5.486a10.514 10.514 0 012.816-6.811l-.006.006 1.433 1.428a.398.398 0 00.564-.003.399.399 0 000-.566L8.86 10.272a10.5 10.5 0 016.776-2.809l.019-.001v2.022a.399.399 0 10.798 0V7.462a10.514 10.514 0 016.801 2.816l-.006-.006-1.433 1.433a.398.398 0 00.002.562.398.398 0 00.562.002l1.433-1.424a10.501 10.501 0 012.809 6.785l.001.019H24.6a.4.4 0 000 .798h2.022a10.467 10.467 0 01-2.815 6.792l.006-.006-1.433-1.437a.394.394 0 00-.562-.001.395.395 0 00-.001.563l1.433 1.432a10.495 10.495 0 01-6.776 2.808l-.019.001v-2.022a.4.4 0 00-.798 0v2.022a10.513 10.513 0 01-6.801-2.815l.006.006 1.433-1.433a.398.398 0 000-.564.398.398 0 00-.564 0l-1.433 1.442a10.45 10.45 0 01-2.809-6.767l-.001-.019H7.51a.399.399 0 100-.798z"/><path d="M12.467 22.168a.395.395 0 00.162-.034l-.003.001 5.095-2.229a.402.402 0 00.205-.203l.001-.003 2.229-5.095a.4.4 0 00-.528-.525l.003-.001-5.095 2.229a.402.402 0 00-.205.203l-.001.003-2.229 5.095a.4.4 0 00.365.559zm4.964-3.324l-2.039-2.039 3.624-1.586zm-2.603-1.474l2.039 2.039-3.625 1.586z"/><path d="M16.054 31.973c7.374.007 13.477-5.731 13.925-13.091S25.064 5.086 17.744 4.199a2.443 2.443 0 00.568-2.686l.006.016a2.439 2.439 0 10-3.953 2.669l.001.001c-7.315.893-12.671 7.326-12.223 14.682s6.543 13.092 13.913 13.092zm0-31.172a1.641 1.641 0 110 3.283 1.641 1.641 0 010-3.283zM6.76 8.738a13.144 13.144 0 11-3.849 9.293v-.017A13.06 13.06 0 016.76 8.738z"/></symbol><symbol id="dart" viewBox="0 0 32 32"><path d="M32 23.83l-6.72 5.759v-3.84h-1.131c-3.571 0-6.201-1.6-8.371-3.718a68.683 68.683 0 002.302-2.906l.484-.637c1.606 1.661 3.333 2.781 5.585 2.781h1.131v-3.2l6.719 5.761zM0 11.029h3.349c2.124 0 3.78.998 5.309 2.502.252-.323.506-.659.763-.995a76.774 76.774 0 012.002-2.554C9.309 8.007 6.759 6.548 3.35 6.548H.001v4.481zm25.28-8.618v3.818h-1.131c-5.91 0-9.242 4.381-12.182 8.247-2.645 3.471-4.928 6.473-8.618 6.473H0v4.48h3.349c5.911 0 9.243-4.378 12.183-8.243 2.644-3.476 4.928-6.477 8.617-6.477h1.131v3.224L32 8.172l-6.72-5.76z"/></symbol><symbol id="heart" viewBox="0 0 32 32"><path d="M23.667 1.333c-3.549 0-6.481 3.297-7.667 4.853-1.186-1.556-4.117-4.853-7.667-4.853C3.738 1.333 0 5.558 0 10.75c0 2.833 1.124 5.473 3.092 7.279.03.052.065.096.105.136l12.332 12.307a.663.663 0 00.942 0l12.874-12.865a5.27 5.27 0 00.322-.326.68.68 0 00.117-.155l.002-.003C31.215 15.373 32 13.116 32 10.751c0-5.192-3.738-9.417-8.333-9.417zm5.009 15.039a.65.65 0 00-.049.065l-.001.002c-.063.072-.131.135-.199.199L15.999 29.057 4.291 17.373a.672.672 0 00-.154-.198l-.001-.001c-1.782-1.556-2.803-3.898-2.803-6.425 0-4.457 3.14-8.083 7-8.083 3.816 0 7.074 4.978 7.106 5.028.246.38.875.38 1.121 0 .033-.05 3.29-5.028 7.106-5.028 3.86 0 7 3.626 7 8.083 0 2.1-.707 4.097-1.99 5.622z"/></symbol><symbol id="hour" viewBox="0 0 32 32"><path d="M16 0C7.157 0 0 7.156 0 16s7.156 16 16 16c8.843 0 16-7.156 16-16S24.844 0 16 0zm0 29.867C8.354 29.867 2.133 23.646 2.133 16S8.354 2.133 16 2.133 29.867 8.354 29.867 16 23.646 29.867 16 29.867z"/><path d="M19.299 15.681h-3.487V9.74a1.067 1.067 0 00-2.134 0v7.008c0 .589.478 1.067 1.067 1.067h4.553a1.067 1.067 0 000-2.134z"/></symbol><symbol id="mail" viewBox="0 0 32 32"><path d="M29.188 3.813H2.813A2.818 2.818 0 000 6.626v18.75a2.818 2.818 0 002.813 2.813h26.375a2.818 2.818 0 002.813-2.813V6.626a2.818 2.818 0 00-2.813-2.813zm-.389 1.875L16.06 18.428 3.21 5.688h25.589zM1.875 24.987V7.005l9.03 8.953-9.03 9.03zm1.326 1.326l9.036-9.036 3.166 3.139a.938.938 0 001.323-.003l3.087-3.087 8.987 8.987H3.202zm26.924-1.326L21.138 16l8.987-8.987v17.973z"/></symbol><symbol id="phone" viewBox="0 0 32 32"><path d="M31.177 23.602l-3.978-3.978a2.816 2.816 0 00-3.978 0l-1.808 1.808a2.132 2.132 0 01-3.013 0l-7.838-7.844a2.13 2.13 0 010-3.014l1.808-1.808a2.811 2.811 0 00-.001-3.979L8.392.822A2.815 2.815 0 004.417.819l-1.45 1.437c-3.955 3.955-3.955 10.39 0 14.345l12.418 12.425a10.138 10.138 0 0014.345 0l1.447-1.447a2.816 2.816 0 000-3.978zM5.74 2.149a.938.938 0 011.327.001l3.977 3.965a.938.938 0 010 1.326l-.663.663L5.08 2.803l.66-.654zm10.971 25.552L4.293 15.276a8.243 8.243 0 01-.517-11.125l5.285 5.285a4.002 4.002 0 00.174 5.478l7.838 7.844a4.003 4.003 0 005.479.174l5.285 5.285a8.227 8.227 0 01-11.125-.517zm13.14-1.447l-.663.663-5.304-5.304.663-.663a.938.938 0 011.326 0l3.978 3.978a.938.938 0 010 1.326z"/></symbol><symbol id="sett" viewBox="0 0 32 32"><path d="M16 7.704c-4.575 0-8.296 3.721-8.296 8.296s3.721 8.296 8.296 8.296 8.296-3.721 8.296-8.296S20.575 7.704 16 7.704zm0 15.407c-3.921 0-7.111-3.19-7.111-7.111S12.079 8.889 16 8.889s7.111 3.19 7.111 7.111-3.19 7.111-7.111 7.111z"/><path d="M30.353 12.444h-1.196a13.493 13.493 0 00-1.374-3.298l.035.064.845-.845c.298-.297.482-.707.482-1.161v-.005c0-.44-.171-.854-.482-1.166l-2.698-2.698c-.622-.622-1.707-.623-2.331 0l-.845.845a13.187 13.187 0 00-3.138-1.316l-.095-.022V1.646a1.65 1.65 0 00-1.647-1.647h-3.816a1.65 1.65 0 00-1.647 1.647v1.196a13.493 13.493 0 00-3.298 1.374l.064-.035-.845-.845c-.623-.623-1.708-.622-2.331 0L3.338 6.034a1.633 1.633 0 00-.482 1.161V7.2c0 .44.171.853.482 1.165l.845.845a13.187 13.187 0 00-1.316 3.138l-.022.095H1.649A1.65 1.65 0 00.002 14.09v3.816a1.65 1.65 0 001.647 1.648h1.196a13.493 13.493 0 001.374 3.298l-.035-.064-.845.845a1.633 1.633 0 00-.482 1.161v.005c0 .44.171.854.482 1.166l2.698 2.698c.622.623 1.708.623 2.331 0l.845-.845a13.22 13.22 0 003.139 1.317l.095.023v1.196a1.65 1.65 0 001.647 1.647h3.816a1.65 1.65 0 001.647-1.647v-1.196a13.493 13.493 0 003.298-1.374l-.064.035.845.845c.623.623 1.708.622 2.331 0l2.698-2.698c.298-.297.482-.707.482-1.161V24.8c0-.44-.171-.853-.482-1.165l-.845-.845a13.22 13.22 0 001.317-3.139l.023-.095h1.196a1.65 1.65 0 001.647-1.647v-3.816a1.65 1.65 0 00-1.648-1.647zm.462 5.464a.462.462 0 01-.462.462h-2.129l-.107.458a12.363 12.363 0 01-1.579 3.791l.03-.051-.249.399 1.505 1.505a.46.46 0 010 .654l-2.698 2.698a.46.46 0 01-.654 0l-1.505-1.505-.399.249a12.157 12.157 0 01-3.656 1.532l-.084.017-.458.107v2.129a.462.462 0 01-.462.462h-3.816a.462.462 0 01-.462-.462v-2.129l-.458-.107a12.363 12.363 0 01-3.791-1.579l.051.03-.399-.249-1.505 1.505a.46.46 0 01-.654 0l-2.698-2.698a.46.46 0 010-.654l1.505-1.505-.249-.399A12.157 12.157 0 013.9 18.912l-.017-.084-.107-.458H1.647a.462.462 0 01-.462-.462v-3.816c0-.255.207-.462.462-.462h2.129l.107-.458a12.338 12.338 0 011.579-3.791l-.03.051.249-.399-1.505-1.505a.46.46 0 010-.654l2.698-2.698a.46.46 0 01.654 0l1.505 1.505.399-.249A12.168 12.168 0 0113.088 3.9l.084-.017.458-.107V1.647c0-.255.207-.462.462-.462h3.816c.255 0 .463.207.463.462v2.129l.458.107c1.416.335 2.665.869 3.791 1.579l-.051-.03.399.249 1.505-1.505a.46.46 0 01.654 0l2.698 2.698a.46.46 0 010 .654L26.32 9.033l.249.399a12.132 12.132 0 011.532 3.656l.017.084.107.458h2.129c.255 0 .462.207.462.462v3.816z"/><path d="M16 10.074c-3.268 0-5.926 2.658-5.926 5.926s2.658 5.926 5.926 5.926 5.926-2.658 5.926-5.926-2.658-5.926-5.926-5.926zm0 10.667c-2.614 0-4.741-2.127-4.741-4.741s2.127-4.741 4.741-4.741 4.741 2.127 4.741 4.741-2.127 4.741-4.741 4.741z"/></symbol><symbol id="submit" viewBox="0 0 32 32"><path d="M31.455 17.577l-4.409-4.409c-.305-.304-.621-.459-.94-.459-.413 0-.686.234-.837.557V9.239a2.327 2.327 0 00-2.324-2.324H2.324A2.327 2.327 0 000 9.239v12.889a2.327 2.327 0 002.324 2.324h20.621c.998 0 1.85-.632 2.179-1.516v.893c0 .625.304 1.255.982 1.255.319 0 .635-.154.94-.459l4.409-4.409c.352-.352.545-.82.545-1.32s-.193-.968-.545-1.32zM1.205 9.24a1.12 1.12 0 011.119-1.119h20.621a1.12 1.12 0 011.119 1.119v.159l-11.43 7.312-11.43-7.312V9.24zm22.859 1.589v4.474h-4.865c-.737 0-1.375.429-1.678 1.051l-1.047-.67 7.59-4.855zm-22.859 0l7.59 4.855-7.59 4.855v-9.711zm21.74 12.419H2.324a1.12 1.12 0 01-1.119-1.119v-.159l8.708-5.57 2.398 1.534a.598.598 0 00.652-.001l-.002.001 2.398-1.534 1.976 1.264v2.961c0 1.029.837 1.866 1.866 1.866h4.804c-.151.44-.568.758-1.058.758zm7.658-3.883l-4.275 4.275v-1.751a.602.602 0 00-.602-.602h-6.527a.663.663 0 01-.662-.662V17.17c0-.365.297-.662.662-.662h6.527c.333 0 .602-.27.602-.602v-1.751l4.275 4.275c.124.124.192.29.192.468s-.068.344-.192.468z"/></symbol><symbol id="worldwide" viewBox="0 0 32 32"><path d="M28.552 6.096l-.001-.003c-.004-.007-.011-.011-.015-.018C25.602 2.378 21.075.001 16 .001c-5.061 0-9.577 2.365-12.511 6.044-.013.017-.031.029-.041.047-.001.003-.001.006-.003.008A15.92 15.92 0 000 16.001a15.92 15.92 0 003.448 9.905l.001.002c.003.006.008.008.011.013 2.934 3.7 7.462 6.08 12.54 6.08 5.009 0 9.485-2.315 12.421-5.929a.7.7 0 00.131-.163l.002-.007A15.921 15.921 0 0032 16.001c0-3.738-1.292-7.178-3.448-9.904zm-.825 1.229a14.508 14.508 0 012.847 7.979h-6.929c-.045-2.262-.302-4.39-.735-6.298 1.808-.405 3.437-.976 4.818-1.681zm-.903-1.101c-1.233.597-2.671 1.084-4.26 1.437-.702-2.447-1.709-4.448-2.92-5.791a14.61 14.61 0 017.181 4.354zm-17.07 9.08c.046-2.152.298-4.2.717-6.03 1.746.3 3.61.465 5.528.465s3.782-.165 5.528-.465c.419 1.83.671 3.878.717 6.031H9.753zm12.491 1.392c-.046 2.152-.298 4.2-.717 6.03-1.745-.3-3.609-.465-5.528-.465s-3.782.165-5.528.465c-.419-1.83-.671-3.878-.717-6.03h12.49zM16 1.391c2.126 0 4.045 2.626 5.182 6.534-1.633.273-3.38.422-5.182.422s-3.549-.149-5.182-.422C11.955 4.017 13.874 1.391 16 1.391zm-3.645.479c-1.21 1.343-2.218 3.343-2.92 5.791-1.59-.353-3.027-.84-4.26-1.437a14.602 14.602 0 017.18-4.354zM4.273 7.326c1.382.705 3.009 1.277 4.818 1.681-.433 1.907-.691 4.035-.735 6.298H1.427a14.494 14.494 0 012.846-7.979zm0 17.348a14.499 14.499 0 01-2.846-7.978h6.929c.045 2.262.302 4.39.735 6.298-1.808.405-3.437.976-4.818 1.681zm.903 1.102c1.233-.597 2.671-1.084 4.26-1.437.702 2.447 1.709 4.448 2.92 5.791a14.61 14.61 0 01-7.18-4.354zM16 30.609c-2.126 0-4.045-2.626-5.182-6.534 1.633-.273 3.38-.422 5.182-.422s3.549.149 5.182.422c-1.137 3.908-3.056 6.534-5.182 6.534zm3.644-.479c1.21-1.343 2.218-3.343 2.92-5.791 1.59.353 3.027.84 4.26 1.437a14.6 14.6 0 01-7.181 4.354zm8.083-5.456c-1.382-.705-3.01-1.277-4.818-1.681.433-1.907.691-4.035.735-6.298h6.929a14.493 14.493 0 01-2.846 7.978z"/></symbol></defs></svg>